<svg width="177" height="45" viewBox="0 0 177 45" fill="none" xmlns="http://www.w3.org/2000/svg">
<path d="M122.95 26.469H117.402V24.0381H122.95V26.469Z" fill="#00A3FF"/>
<path d="M132.872 16.4662H129.871V32.2613H127.161V16.4662H124.16V14.0586H132.872V16.4662Z" fill="#00A3FF"/>
<path d="M143.584 32.2613H140.746L137.745 23.8055C137.745 23.8055 137.745 23.2588 137.745 22.1655H140.42V16.3964H136.989V32.2613H134.267V14.0586H141.49C142.584 14.0586 143.13 14.6169 143.13 15.7335V22.3516C143.13 23.1192 142.871 23.6155 142.351 23.8403C142.072 23.9567 141.483 24.0148 140.583 24.0148L143.584 32.2613Z" fill="#00A3FF"/>
<path d="M154.354 30.598C154.354 31.7068 153.796 32.2613 152.679 32.2613H146.899C145.798 32.2613 145.247 31.7068 145.247 30.598V14.0586H147.969V29.9234H151.633V14.0586H154.354V30.598Z" fill="#00A3FF"/>
<path d="M165.509 30.598C165.509 31.7068 164.954 32.2613 163.845 32.2613H158.169C157.092 32.2613 156.553 31.7068 156.553 30.598V15.7335C156.553 14.6169 157.092 14.0586 158.169 14.0586H163.845C164.954 14.0586 165.509 14.6169 165.509 15.7335V19.9905H162.799V16.3964H159.274V29.9234H162.799V26.0968H165.509V30.598Z" fill="#00A3FF"/>
<path d="M176.826 32.2613H173.825L170.37 24.1428V32.2613H167.649V14.0586H170.37V21.7584L173.394 14.0586H176.372V14.1865L172.673 22.8284L176.826 32.2613Z" fill="#00A3FF"/>
<path d="M74.9559 30.5978C74.9559 31.7067 74.4015 32.2611 73.2927 32.2611H67.6167C66.5389 32.2611 66 31.7067 66 30.5978V15.7333C66 14.6167 66.5389 14.0584 67.6167 14.0584H73.2927C74.4015 14.0584 74.9559 14.6167 74.9559 15.7333V19.9903H72.2459V16.3963H68.7217V29.9232H72.2459V26.0966H74.9559V30.5978Z" fill="white"/>
<path d="M84.2492 32.2611H77.0961V14.0584H79.8177V29.8302H84.2492V32.2611Z" fill="white"/>
<path d="M93.4145 32.2611H85.8659V14.0584H93.3447V16.4661H88.5876V21.7815H92.6817V24.1426H88.5876V29.8534H93.4145V32.2611Z" fill="white"/>
<path d="M104.511 32.2611H101.812L101.265 28.8066H97.8576L97.3109 32.2611H94.6241V32.2146L98.1484 14.0352H101.01L104.511 32.2611ZM100.882 26.4688L99.5557 18.2572L98.2181 26.4688H100.882Z" fill="white"/>
<path d="M115.258 32.2611H112.873L108.512 20.8045C108.628 21.3627 108.686 21.8009 108.686 22.1188V32.2611H106.034V14.0584H108.419L112.78 25.2824C112.664 24.7241 112.606 24.286 112.606 23.9681V14.0584H115.258V32.2611Z" fill="white"/>
<g clip-path="url(#clip0_32482_752)">
<path d="M21.5651 16.8745C21.5651 18.3812 21.5651 19.9884 21.5651 21.4951C21.5651 22.1982 21.0659 22.1982 20.6666 22.3991C17.4719 23.7049 14.1774 25.0107 10.9827 26.3165C10.783 26.417 10.4835 26.4169 10.2839 26.5174V26.6178C10.5834 26.6178 10.8829 26.5174 11.1824 26.5174C14.0775 25.8143 17.0725 25.1111 19.9677 24.3076C21.3654 23.9058 21.3654 23.9058 21.3654 25.5129C21.2656 27.4214 21.2656 29.3299 21.2656 31.1379C21.2656 31.8411 21.0659 32.1424 20.2672 32.0419C16.174 31.7406 12.0809 31.5397 7.98769 31.2384C6.09085 31.1379 5.09252 30.1335 4.89285 28.4259C4.69318 26.5174 5.59168 24.6089 7.08919 24.1067C7.78802 23.8053 8.18736 22.4995 7.68819 21.7964C6.98935 20.8924 6.68985 19.8879 6.78969 18.783C6.98935 17.1759 7.88786 16.071 9.68486 15.7696C8.78636 14.6647 8.78636 13.7607 9.98436 12.9571C10.3837 12.7562 10.184 12.5553 10.0842 12.254C9.28553 10.2451 9.68486 9.54196 11.981 9.34106C12.2805 9.34106 12.4802 9.34106 12.4802 9.03972C12.4802 7.73392 13.2789 6.93035 14.4769 6.8299C15.7747 6.72946 16.4735 7.63347 16.8729 8.73838C16.8729 8.73838 16.8729 8.83883 17.0725 8.93928C17.6716 8.3366 18.3704 7.73392 19.2689 7.53303C20.7664 7.33213 21.7647 8.23615 21.8646 9.74285C21.9644 11.4504 21.5651 12.6558 20.0676 13.6603C17.7714 15.2674 15.575 17.1759 13.3787 18.8835C13.0792 19.0844 12.6799 19.2853 12.4802 20.0888C15.6749 18.1803 18.5701 16.2719 21.5651 14.4638C21.6649 14.4638 21.6649 14.5643 21.7647 14.5643C21.7647 14.8656 21.7647 15.0665 21.7647 15.3678C19.9677 16.5732 18.1707 17.7786 16.4735 18.9839C16.2739 19.0844 16.174 19.1848 15.9744 19.2853C16.2739 19.4861 16.4735 19.3857 16.6732 19.1848C18.2706 18.4817 19.8679 17.6781 21.5651 16.8745ZM11.8812 20.2897C11.7814 20.4906 11.382 20.3902 11.4819 20.5911C11.5817 20.792 11.8812 20.6915 12.0809 20.4906C12.1807 20.3902 12.3804 20.3902 12.2805 20.1893C12.0809 20.0888 11.981 20.1893 11.8812 20.2897ZM15.4752 9.03972C15.0759 10.8478 14.0775 11.7518 12.58 12.4549C14.1774 12.8567 15.0759 13.6603 15.4752 15.167C16.0742 13.7607 16.9727 12.9571 18.5701 12.4549C16.6732 11.9527 16.0742 10.6469 15.4752 9.03972ZM8.28719 19.5866C9.08586 19.8879 9.48519 20.2897 9.88453 21.0933C10.2839 20.3902 10.783 19.8879 11.6815 19.5866C10.6832 19.2853 10.2839 18.5821 9.88453 17.6781C9.58503 18.5821 8.98603 19.0844 8.28719 19.5866Z" fill="#00A3FF"/>
<path d="M20.3662 4.82143C22.6624 3.91741 24.0601 2.51116 24.6591 0C25.5576 2.31027 26.4561 4.21875 29.1516 4.72098C26.8554 5.42411 25.3579 6.52902 24.5592 8.83929C24.1599 6.42857 22.6624 5.32366 20.3662 4.82143Z" fill="#00A3FF"/>
<path d="M3.1953 26.0158C2.39663 25.9153 1.89746 25.5135 1.89746 24.71C1.89746 23.9064 2.2968 23.3037 3.1953 23.3037C3.99397 23.3037 4.49314 23.8059 4.49314 24.6095C4.49314 25.4131 3.99397 25.9153 3.1953 26.0158Z" fill="#00A3FF"/>
<path d="M1.09817 15.1677C0.399334 14.9668 0 14.6655 0 13.9623C0 13.2592 0.499168 12.8574 1.09817 12.8574C1.79701 12.8574 2.29617 13.3597 2.29617 14.0628C2.29617 14.7659 1.79701 15.0672 1.09817 15.1677Z" fill="#00A3FF"/>
<path d="M5.09156 16.7751C4.39272 16.6747 3.89355 16.3733 3.89355 15.6702C3.89355 14.9671 4.29289 14.4648 5.09156 14.4648C5.79039 14.4648 6.18973 14.8666 6.18973 15.5698C6.18973 16.2729 5.79039 16.6747 5.09156 16.7751Z" fill="#00A3FF"/>
<path d="M1.89655 17.9789C1.39738 17.8785 0.998047 17.6776 0.998047 17.0749C0.998047 16.5727 1.39738 16.1709 1.89655 16.1709C2.39572 16.1709 2.69522 16.4722 2.69522 16.9745C2.79505 17.5771 2.39572 17.8785 1.89655 17.9789Z" fill="#00A3FF"/>
<path d="M8.28597 8.63839C7.78681 8.63839 7.4873 8.33705 7.4873 7.83482C7.4873 7.33259 7.78681 7.03125 8.18614 7.03125C8.68531 7.03125 8.98481 7.33259 8.98481 7.83482C9.08464 8.33705 8.78514 8.63839 8.28597 8.63839Z" fill="#00A3FF"/>
<path d="M5.59141 8.23633C5.99075 8.33677 6.29025 8.53767 6.29025 8.93945C6.29025 9.34124 5.99075 9.64258 5.59141 9.64258C5.09225 9.64258 4.89258 9.34124 4.89258 8.83901C4.89258 8.43722 5.19208 8.23633 5.59141 8.23633Z" fill="#00A3FF"/>
<path d="M8.68591 4.7207C9.08525 4.82115 9.28492 4.9216 9.28492 5.32338C9.28492 5.72517 9.08525 5.92606 8.68591 5.92606C8.38641 5.92606 8.08691 5.72517 8.08691 5.32338C8.08691 4.9216 8.38641 4.7207 8.68591 4.7207Z" fill="#00A3FF"/>
<path d="M6.48963 6.02734C6.78913 6.02734 6.98879 6.22824 6.98879 6.52958C6.98879 6.83092 6.78913 7.03181 6.48963 7.03181C6.09029 7.03181 5.89062 6.83092 5.89062 6.42913C5.89062 6.12779 6.09029 6.02734 6.48963 6.02734Z" fill="#00A3FF"/>
<path d="M32.0462 11.4512C35.6402 11.6521 39.2342 11.9534 42.6286 13.4601C48.5188 16.0717 49.5171 20.3909 49.7168 24.911C49.7168 25.5137 49.5171 25.7146 48.9181 25.6141C45.2243 25.4132 41.4306 25.2123 37.7367 24.911C35.5404 24.7101 33.2442 24.8105 31.0479 25.1119C29.4505 25.3128 29.3507 25.3128 29.2509 23.6052C29.2509 22.9021 29.2509 22.1989 29.151 21.3954C28.9514 20.0896 29.6502 19.3864 30.8482 18.9847C31.8465 18.6833 32.8449 18.5829 33.943 18.6833C37.3374 18.8842 40.7317 19.0851 44.1261 19.286C45.1244 19.3864 46.1228 19.3864 47.2209 19.4869C46.5221 17.478 45.2243 16.0717 43.6269 15.0672C40.7317 13.2592 37.5371 12.5561 34.2425 12.0539C33.5437 11.9534 32.8449 11.853 32.146 11.7525C32.146 11.6521 32.0462 11.5516 32.0462 11.4512Z" fill="white"/>
<path d="M46.5229 37.3661C46.2234 35.3571 45.9239 33.3482 45.7242 31.2388C45.6244 30.5357 45.3249 30.2344 44.7259 29.933C41.9305 28.7277 39.1352 27.4219 36.3398 26.0156C42.1302 27.7232 47.9205 29.8326 54.2101 28.6272C53.7109 28.3259 53.3116 28.0246 52.8124 27.7232C52.4131 27.4219 52.0137 27.221 51.6144 26.8192C53.4114 27.0201 55.0087 27.8237 56.2067 29.1295C57.6044 30.6362 56.8057 32.5446 57.1052 34.4531C57.9039 34.2522 58.7026 33.9509 59.3016 34.8549C59.5013 35.2567 59.5012 35.558 59.2017 35.8594C58.6027 36.5625 57.9039 36.3616 57.1052 36.0603C57.0054 36.4621 57.0054 36.7634 56.9056 37.1652C56.2067 36.2612 55.2084 36.6629 54.4097 36.6629C52.4131 36.6629 50.5162 36.7634 48.5195 36.7634C48.0204 36.7634 47.5212 36.6629 47.4214 37.3661C47.022 37.3661 46.8224 37.3661 46.5229 37.3661ZM51.4147 32.9464C52.7126 32.9464 54.0104 32.9464 55.4081 32.9464C55.7076 32.9464 56.1069 33.0469 56.1069 32.5446C56.1069 32.0424 55.8074 32.0424 55.5079 32.0424C52.8124 32.0424 50.1169 32.0424 47.5212 32.0424C47.2217 32.0424 46.8224 32.0424 46.8224 32.4442C46.8224 32.9464 47.2217 32.846 47.5212 32.846C48.7192 32.9464 50.1169 32.9464 51.4147 32.9464ZM51.3149 31.7411C52.6127 31.6406 53.9106 31.6406 55.3082 31.6406C55.6077 31.6406 56.0071 31.7411 56.1069 31.3393C56.1069 30.8371 55.7076 30.8371 55.3082 30.8371C52.7126 30.8371 50.0171 30.9375 47.4214 30.9375C47.1219 30.9375 46.7225 30.9375 46.8224 31.4397C46.8224 31.8415 47.2217 31.7411 47.4214 31.7411C48.7192 31.7411 50.0171 31.7411 51.3149 31.7411ZM56.3066 34.9554C56.3066 34.8549 56.3066 34.7545 56.3066 34.654C53.3116 34.654 50.3166 34.654 47.3215 34.654C47.3215 34.7545 47.3215 34.8549 47.3215 34.9554C50.3166 34.9554 53.3116 34.9554 56.3066 34.9554ZM47.1219 30.3348C49.8174 30.3348 52.4131 30.3348 55.1086 30.3348C55.1086 30.2344 55.1086 30.1339 55.1086 30.0335C52.4131 29.5312 49.7176 29.5313 47.1219 30.3348ZM47.4214 35.7589C47.4214 35.8594 47.4214 35.9598 47.4214 36.0603C50.3166 36.0603 53.3116 36.0603 56.2067 36.0603C56.2067 35.9598 56.2067 35.8594 56.2067 35.7589C53.3116 35.7589 50.4164 35.7589 47.4214 35.7589Z" fill="white"/>
<path d="M30.8486 39.5761C30.8486 38.0694 31.0483 36.5627 31.847 35.2569C32.7455 33.7502 34.1431 33.6497 34.9418 35.2569C36.4393 38.0694 36.4393 40.9823 34.9418 43.7948C34.1431 45.4019 32.7455 45.3015 31.847 43.7948C31.0483 42.5894 30.8486 41.0828 30.8486 39.5761ZM34.1431 39.3752C34.0433 38.7725 34.1431 37.768 33.3445 37.768C32.5458 37.768 32.5458 38.672 32.5458 39.3752C32.5458 39.9778 32.446 40.9823 33.3445 40.9823C34.1431 40.8819 33.9435 39.9778 34.1431 39.3752Z" fill="white"/>
<path d="M42.1304 43.3928C46.7227 43.0914 51.3151 42.6896 56.0072 42.3883C57.7044 42.2879 59.2019 40.2789 58.8026 38.5713C58.7027 37.9687 58.2036 37.6673 57.7044 37.2655C58.5031 36.8638 59.2019 36.9642 59.7011 37.366C60.2003 37.7678 59.8009 38.3705 59.8009 38.7722C59.8009 39.174 59.6012 39.5758 59.5014 39.9776C58.8026 42.5892 58.2036 43.0914 55.5081 43.2923C50.3167 43.6941 45.2252 44.1963 40.0338 44.5981C38.137 44.799 37.538 44.2968 37.1387 42.2879C37.7377 42.6896 38.137 43.3928 38.9357 43.4932C39.1353 43.4932 39.335 43.3928 39.4348 43.3928C40.1337 43.3928 40.9324 43.2923 41.6312 43.2923C41.8309 43.3928 42.0305 43.3928 42.1304 43.3928Z" fill="white"/>
<path d="M20.2679 33.7508C21.4659 34.8557 21.7654 37.6682 20.7671 38.8736C20.2679 39.4763 19.7688 39.3758 19.4693 38.7732C19.2696 38.3714 19.0699 37.9696 18.8703 37.5678C17.7721 38.6727 17.5724 38.6727 16.8736 37.2665C16.6739 36.7642 16.4743 36.6638 16.1748 37.0656C15.7754 37.5678 15.3761 37.2665 15.1764 36.8647C14.4776 35.7598 14.6773 33.9517 15.6756 32.9473C16.4743 33.1482 16.4743 33.9517 16.7738 34.6549C17.1731 33.9517 17.2729 33.1482 18.2713 33.2486C18.4709 33.7508 18.7704 34.1526 18.9701 34.6549C19.3694 34.2531 19.4693 33.5499 20.2679 33.7508Z" fill="white"/>
<path d="M20.2668 33.7504C19.7677 32.8464 18.969 33.2482 18.1703 33.2482C17.3717 32.7459 16.4732 32.8464 15.5747 32.7459C15.4748 32.7459 15.4748 32.7459 15.375 32.6455C15.375 32.5451 15.375 32.3442 15.375 32.2437C18.4698 32.4446 21.4648 32.5451 24.5597 32.7459C26.756 32.8464 27.1554 32.4446 27.1554 30.2348C27.1554 26.1165 27.1554 21.9982 27.355 17.8799C27.954 18.9848 27.8542 20.0897 27.954 21.2951C28.3534 25.3129 28.4532 29.3308 27.954 33.2482C27.8542 33.9513 27.6545 34.0518 26.9557 33.9513C25.0589 33.65 23.162 33.4491 21.2652 33.3486C20.8658 33.4491 20.3667 33.0473 20.2668 33.7504Z" fill="white"/>
<path d="M56.6066 38.6719C56.2073 40.9821 55.7081 41.3839 53.6116 41.4844C52.0143 41.5848 50.417 41.6853 48.8196 41.7857C47.7215 41.7857 46.823 40.4799 47.3221 39.4754C47.422 39.1741 47.7215 39.1741 48.021 39.1741C50.9161 38.9732 53.7115 38.7723 56.6066 38.6719Z" fill="white"/>
<path d="M22.0654 25.7157C22.0654 21.497 22.3649 17.2782 22.9639 13.0595C23.0638 12.2559 23.6628 12.1554 24.2618 12.055C26.6578 11.6532 28.5546 12.5572 30.2518 14.1644C31.1503 14.9679 31.949 15.9724 32.1486 17.2782C31.35 16.3742 30.4515 15.5706 29.4531 14.8675C28.5546 14.1644 27.5563 13.6621 26.4581 13.3608C24.9606 12.959 23.9623 13.6621 23.7626 15.1688C23.0638 18.6845 22.7643 22.2001 22.5646 25.8162C22.3649 25.7157 22.2651 25.7157 22.0654 25.7157Z" fill="white"/>
<path d="M43.0295 32.244C41.3323 31.9427 39.7349 31.34 37.9379 31.0387C33.8448 30.436 32.2474 31.2395 30.5503 34.9561C30.0511 36.1614 29.4521 36.4628 28.2541 36.1614C26.9562 35.7596 25.5586 35.6592 24.2607 35.3579C25.5586 35.157 26.8564 35.2574 28.1543 35.4583C28.8531 35.5587 29.2524 35.3579 29.5519 34.7552C30.0511 33.9516 30.5503 33.148 31.0494 32.3445C32.2474 30.5364 33.9446 29.8333 35.9413 30.0342C38.5369 30.1346 40.933 30.9382 43.0295 32.244Z" fill="white"/>
<path d="M33.2461 3.71708C34.8434 3.01395 35.7419 2.00949 36.2411 0.402344C36.8401 1.90904 37.4391 3.21484 39.2361 3.71708C37.8384 4.21931 36.7403 4.82199 36.2411 6.42913C35.7419 4.82199 34.8434 4.01842 33.2461 3.71708Z" fill="white"/>
<path d="M39.5354 43.4933C39.3358 43.4933 39.1361 43.5938 39.0363 43.5938C39.5354 42.8906 38.7368 42.7902 38.4373 42.5893C37.8383 41.7857 37.2393 41.0826 37.3391 40.0781C37.4389 39.1741 37.8383 38.6719 38.8366 38.6719C40.0346 38.6719 41.1328 38.7723 42.6303 39.0737C41.8316 39.5759 41.2326 39.2746 40.7334 39.375C39.8349 39.4754 38.8366 39.375 38.5371 40.4799C38.3374 41.183 39.7351 42.4888 40.7334 42.4888C41.6319 42.5893 42.5304 42.5893 43.3291 42.5893C43.2293 42.6897 43.1294 42.8906 43.1294 42.9911C42.8299 42.9911 42.5304 42.9911 42.2309 43.0915C41.9314 42.9911 41.9314 43.192 42.1311 43.3929C42.0313 43.3929 41.8316 43.3929 41.7318 43.3929C41.2326 42.8906 40.0346 42.9911 39.5354 43.4933Z" fill="white"/>
<path d="M47.5215 37.4678C50.7162 37.4678 53.811 37.4678 57.0057 37.4678C51.1155 37.8696 45.2254 38.7736 39.2354 37.4678C41.6314 37.4678 44.0274 37.4678 46.4234 37.4678C46.8227 37.6687 47.1222 37.6687 47.5215 37.4678Z" fill="white"/>
<path d="M31.4481 9.74316C31.2484 8.53781 30.4497 8.13602 29.3516 7.83468C30.4497 7.33245 31.1486 6.62932 31.5479 5.52441C32.1469 6.52888 32.5462 7.53334 33.8441 7.83468C32.7459 8.23647 32.0471 8.83915 31.4481 9.74316Z" fill="white"/>
<path d="M23.2617 38.5717C24.5596 38.4713 25.4581 38.9735 26.4564 39.1744C27.4547 39.3753 28.5529 39.7771 29.5512 39.978C30.4497 40.0784 30.7492 40.5807 30.6494 41.5851C28.1536 40.5807 25.8574 39.6766 23.2617 38.5717Z" fill="white"/>
<path d="M10.9826 32.5443C11.4818 33.3479 11.4818 34.1514 11.1823 34.955C10.9826 35.4572 10.6831 35.859 10.184 35.1559C10.0841 35.0555 10.0841 34.6537 9.88445 34.7541C8.78628 35.1559 8.98595 34.3523 8.88612 33.7497C8.78628 32.4438 8.98595 32.243 10.3836 32.4438C10.4835 32.5443 10.783 32.5443 10.9826 32.5443Z" fill="white"/>
<path d="M41.1316 36.6641C40.4328 36.6641 39.8338 36.3627 39.8338 35.6596C39.7339 34.856 40.4328 34.5547 41.1316 34.5547C41.7306 34.5547 42.3296 34.856 42.3296 35.5591C42.3296 36.2623 41.7306 36.5636 41.1316 36.6641Z" fill="white"/>
<path d="M43.428 41.4847C43.0287 41.3842 42.7292 41.4847 42.4297 41.6855C42.1302 41.8864 41.7308 41.8864 41.4313 41.5851C41.2317 41.2838 41.1318 40.9824 41.3315 40.6811C41.631 40.2793 41.9305 40.1789 42.3298 40.3797C42.6293 40.5806 43.0287 40.5806 43.3282 40.3797C43.6277 40.2793 43.9272 40.2793 44.2267 40.4802C44.4263 40.6811 44.4263 40.882 44.3265 41.1833C44.1268 41.5851 43.8273 41.5851 43.428 41.4847Z" fill="white"/>
<path d="M44.0271 36.6629C43.5279 36.5625 42.8291 36.5625 42.8291 35.8594C42.8291 35.1563 43.5279 35.1562 44.0271 35.1562C44.5263 35.1562 45.3249 35.1562 45.2251 35.9598C45.2251 36.5625 44.6261 36.5625 44.0271 36.6629Z" fill="white"/>
<path d="M22.0654 25.7148C22.1653 25.7148 22.3649 25.7148 22.4648 25.7148C22.3649 26.8198 22.3649 28.0251 22.2651 29.13C22.1653 29.13 22.1653 29.13 22.0654 29.13C22.0654 28.0251 22.0654 26.9202 22.0654 25.7148Z" fill="white"/>
<path d="M32.0472 11.4519C32.0472 11.5524 32.0472 11.6528 32.0472 11.7532C30.949 11.6528 29.9507 11.5524 28.8525 11.4519C29.9507 11.251 31.0489 11.1506 32.0472 11.4519Z" fill="white"/>
<path d="M12.6797 32.4449C12.6797 32.3444 12.6797 32.244 12.6797 32.1436C13.5782 32.1436 14.4767 32.244 15.2754 32.244C15.2754 32.3444 15.2754 32.5453 15.2754 32.6458C14.4767 32.6458 13.5782 32.5453 12.6797 32.4449Z" fill="white"/>
<path d="M43.1299 42.7905C43.2297 42.69 43.3295 42.4891 43.3295 42.3887C43.9285 42.3887 44.5275 42.3887 45.426 42.3887C44.4277 42.7905 43.8287 42.8909 43.1299 42.7905Z" fill="white"/>
<path d="M38.537 37.5682C38.537 37.6687 38.537 37.6687 38.537 37.5682C38.4372 37.6687 38.3374 37.6687 38.3374 37.5682C38.2375 37.5682 38.2375 37.4678 38.1377 37.4678C38.2375 37.4678 38.2375 37.4678 38.3374 37.4678C38.4372 37.5682 38.537 37.5682 38.537 37.5682Z" fill="white"/>
<path d="M47.521 37.4675C47.1217 37.5679 46.8222 37.5679 46.4229 37.4675C46.4229 37.367 46.5227 37.367 46.5227 37.2666C46.8222 37.2666 47.0219 37.2666 47.3213 37.2666C47.4212 37.367 47.4212 37.4675 47.521 37.4675Z" fill="white"/>
</g>
<defs>
<clipPath id="clip0_32482_752">
<rect width="60" height="45" fill="white"/>
</clipPath>
</defs>
</svg>
