<svg width="23" height="23" viewBox="0 0 23 23" fill="none" xmlns="http://www.w3.org/2000/svg">
<g clip-path="url(#clip0_8_13)">
<path fill-rule="evenodd" clip-rule="evenodd" d="M11.4997 0.318359C5.32453 0.318359 0.317871 5.32502 0.317871 11.5002C0.317871 17.6753 5.32453 22.682 11.4997 22.682C17.6748 22.682 22.6815 17.6753 22.6815 11.5002C22.6815 5.32502 17.6748 0.318359 11.4997 0.318359ZM16.6825 7.92293C16.5147 9.69059 15.786 13.9816 15.4161 15.9617C15.2596 16.8004 14.9502 17.0808 14.652 17.1079C14.0026 17.1675 13.5096 16.6783 12.8806 16.2664C11.8966 15.6216 11.3403 15.22 10.3852 14.5901C9.28103 13.8623 9.99667 13.4626 10.6256 12.8094C10.7906 12.6379 13.6513 10.0354 13.7072 9.79961C13.7137 9.76979 13.7211 9.65984 13.655 9.60206C13.5888 9.54429 13.4928 9.56386 13.4239 9.5797C13.3251 9.60206 11.7531 10.641 8.70703 12.6966C8.26069 13.0032 7.85628 13.1523 7.4938 13.1448C7.09498 13.1364 6.32717 12.9193 5.75596 12.733C5.05617 12.5056 4.49894 12.3845 4.54739 11.9987C4.57255 11.7974 4.8493 11.5915 5.37858 11.3809C8.63807 9.96081 10.812 9.02434 11.8994 8.57147C15.0052 7.27997 15.65 7.0554 16.0712 7.04795C16.5986 7.04049 16.7253 7.47565 16.6825 7.92293Z" fill="white"/>
</g>
<defs>
<clipPath id="clip0_8_13">
<rect width="22.3636" height="22.3636" fill="white" transform="translate(0.317871 0.318359)"/>
</clipPath>
</defs>
</svg>
