<svg width="23" height="23" viewBox="0 0 23 23" fill="none" xmlns="http://www.w3.org/2000/svg">
<g clip-path="url(#clip0_8_18)">
<path fill-rule="evenodd" clip-rule="evenodd" d="M19.5213 3.56854C17.4284 1.47381 14.646 0.319291 11.6819 0.318359C5.57382 0.318359 0.602569 5.28868 0.599774 11.3995C0.598842 13.3526 1.10948 15.2591 2.0795 16.9401L0.506592 22.682L6.38077 21.1408C7.99934 22.0241 9.82198 22.4891 11.6763 22.49H11.681C17.7881 22.49 22.7603 17.5188 22.7631 11.4079C22.7649 8.44754 21.6132 5.66234 19.5213 3.56854ZM11.6819 20.618H11.6782C10.0251 20.618 8.40468 20.1735 6.99018 19.334L6.65379 19.1346L3.16786 20.0487L4.09875 16.6494L3.87977 16.3009C2.95727 14.8342 2.47086 13.1392 2.4718 11.3995C2.47366 6.32113 6.60627 2.18945 11.6865 2.18945C14.1465 2.18945 16.4593 3.14922 18.1981 4.88986C19.9369 6.63143 20.8938 8.94513 20.8929 11.4061C20.8901 16.4863 16.7584 20.618 11.6819 20.618ZM16.7342 13.7198C16.4575 13.5809 15.0961 12.9109 14.8417 12.8187C14.5882 12.7264 14.4037 12.6799 14.2183 12.9566C14.0329 13.2334 13.5036 13.8577 13.3415 14.0431C13.1802 14.2276 13.0181 14.2509 12.7414 14.1121C12.4646 13.9732 11.5719 13.6816 10.5143 12.7376C9.69152 12.0034 9.13523 11.0967 8.97402 10.819C8.81282 10.5413 8.95725 10.3922 9.09516 10.2543C9.22002 10.1304 9.37191 9.93099 9.51075 9.76886C9.65052 9.60859 9.69618 9.49304 9.78936 9.30761C9.88161 9.12311 9.83595 8.96097 9.76607 8.82213C9.69618 8.68422 9.14268 7.32097 8.91252 6.76654C8.68795 6.22609 8.45966 6.2997 8.28914 6.29131C8.12793 6.28293 7.94343 6.282 7.758 6.282C7.5735 6.282 7.27345 6.35095 7.02 6.62863C6.76654 6.90631 6.05091 7.57629 6.05091 8.93861C6.05091 10.3019 7.04329 11.6185 7.1812 11.803C7.31911 11.9875 9.13336 14.7848 11.9111 15.9841C12.5718 16.2692 13.088 16.4397 13.4896 16.5674C14.1531 16.778 14.7569 16.7482 15.234 16.6774C15.766 16.5982 16.8721 16.0074 17.1032 15.3607C17.3343 14.714 17.3343 14.1587 17.2644 14.044C17.1955 13.9276 17.011 13.8586 16.7342 13.7198Z" fill="white"/>
</g>
<defs>
<clipPath id="clip0_8_18">
<rect width="22.3636" height="22.3636" fill="white" transform="translate(0.453613 0.318359)"/>
</clipPath>
</defs>
</svg>
