<svg id="Layer_1" data-name="Layer 1" xmlns="http://www.w3.org/2000/svg" width="256" height="74" viewBox="0 0 256 74">
  <defs>
    <style>
      .cls-1 {
        fill: #18162d;
      }

      .cls-2 {
        fill: #fff;
        stroke: #fff;
        stroke-miterlimit: 10;
      }
    </style>
  </defs>
  <path class="cls-1" d="M26.42,51.08h-8l3.31-15.7-8.53,15.7H8.32L6.7,34.83,3.24,51.08H0L4.86,28H14l1.11,13,6.92-13h9.25Z"/>
  <path class="cls-1" d="M29.65,51.08,34.51,28H44.2a14.41,14.41,0,0,1,3.88.47A6.07,6.07,0,0,1,50.86,30a6.43,6.43,0,0,1,1.65,2.77,13,13,0,0,1,.58,4.18,19.73,19.73,0,0,1-.69,5.19,12.33,12.33,0,0,1-2.19,4.55,11.34,11.34,0,0,1-4.07,3.23A14.12,14.12,0,0,1,40,51.08Zm9.87-2.54a2.76,2.76,0,0,0,2.08-1A8.66,8.66,0,0,0,43.19,45a19.31,19.31,0,0,0,1.11-3.42A33.21,33.21,0,0,0,45,38c.2-1.16.33-2.21.4-3.13s.14-1.57.14-2a2.84,2.84,0,0,0-.46-1.74,1.72,1.72,0,0,0-1.55-.66H41.82L38,48.54Z"/>
  <path class="cls-1" d="M72.39,51.08H64l-.5-5.78H56.81l-2.56,5.78H50.76L61.38,28h8.53ZM58,42.65h5.22l-.82-9.89Z"/>
  <path class="cls-1" d="M114.36,34.86a7,7,0,0,0,.11-1.45,6.85,6.85,0,0,0-.07-1,3.33,3.33,0,0,0-.26-.92,1.26,1.26,0,0,0-.55-.63,1.62,1.62,0,0,0-1-.25,2.6,2.6,0,0,0-1.21.28,3.92,3.92,0,0,0-1,.75,3.32,3.32,0,0,0-.66,1,3.45,3.45,0,0,0-.22,1.2,2,2,0,0,0,.48,1.42,3.89,3.89,0,0,0,1.32.81,11.39,11.39,0,0,0,1.83.53c.68.14,1.39.31,2.13.49a14.76,14.76,0,0,1,1.83.64,5.3,5.3,0,0,1,1.61,1.06,4.44,4.44,0,0,1,1.17,1.7,6.61,6.61,0,0,1,.44,2.58,6.73,6.73,0,0,1-3.44,6.22,11.75,11.75,0,0,1-3.85,1.38,25.68,25.68,0,0,1-4.8.42,23.23,23.23,0,0,1-4.32-.32,15.26,15.26,0,0,1-2.6-.74A4.55,4.55,0,0,1,99.67,49l1.25-4.84h6.44c0,.21,0,.51-.07.88s0,.64,0,.85a3.9,3.9,0,0,0,.1.88,3.76,3.76,0,0,0,.33.85,2.16,2.16,0,0,0,.7.64,2.26,2.26,0,0,0,1.1.25,2.51,2.51,0,0,0,1.28-.32,3,3,0,0,0,1-.78,3.19,3.19,0,0,0,.59-1.06,3.31,3.31,0,0,0,.22-1.17,2.08,2.08,0,0,0-.4-1.3,2.91,2.91,0,0,0-1-.89,6.19,6.19,0,0,0-1.54-.63l-1.75-.57c-.59-.16-1.21-.37-1.87-.6a6.49,6.49,0,0,1-1.76-1,5.41,5.41,0,0,1-1.36-1.59,5.47,5.47,0,0,1-.51-2.51,6,6,0,0,1,1.17-3.78,9.17,9.17,0,0,1,3-2.51,13.82,13.82,0,0,1,4-1.35,21.54,21.54,0,0,1,4.1-.42,14.22,14.22,0,0,1,4.4.6,8.52,8.52,0,0,1,2.82,1.34l-1.36,4.92Z"/>
  <path class="cls-1" d="M141,50.8h-7.91l2.2-10h-4.51l-2.2,10H120.7l4.94-22.45h8l-2.16,9.76h4.47l2.16-9.76h8Z"/>
  <path class="cls-1" d="M152.28,50.8h-7.91l4.94-22.45h7.95Z"/>
  <path class="cls-1" d="M167.34,41.11a2.27,2.27,0,0,0,1.83-.88,6.89,6.89,0,0,0,1.25-2.16,11.8,11.8,0,0,0,.73-2.65,15.12,15.12,0,0,0,.22-2.4,3.41,3.41,0,0,0-.33-1.59,1.42,1.42,0,0,0-1.43-.67H168l-2.3,10.35Zm-2.2,2.27L163.5,50.8h-7.92l4.95-22.45H169a29.65,29.65,0,0,1,3.81.22,9,9,0,0,1,3,.84,4.65,4.65,0,0,1,1.94,1.84,6.18,6.18,0,0,1,.7,3.15,9.82,9.82,0,0,1-.63,3.5,7,7,0,0,1-1.94,2.86,9.44,9.44,0,0,1-3.44,1.91,16.55,16.55,0,0,1-5.17.71Z"/>
  <path class="cls-1" d="M188.58,41.11a2.28,2.28,0,0,0,1.83-.88,6.87,6.87,0,0,0,1.24-2.16,11.82,11.82,0,0,0,.74-2.65,16.4,16.4,0,0,0,.22-2.4,3.41,3.41,0,0,0-.33-1.59,1.43,1.43,0,0,0-1.43-.67H189.2l-2.31,10.35Zm-2.2,2.27-1.65,7.42h-7.91l4.94-22.45h8.47a29.65,29.65,0,0,1,3.81.22,9,9,0,0,1,3,.84A4.74,4.74,0,0,1,199,31.25a6.18,6.18,0,0,1,.69,3.15,10,10,0,0,1-.62,3.5,7.11,7.11,0,0,1-1.94,2.86,9.49,9.49,0,0,1-3.45,1.91,16.48,16.48,0,0,1-5.16.71Z"/>
  <path class="cls-1" d="M206,50.8h-7.91L203,28.35H211Z"/>
  <path class="cls-1" d="M228.79,50.8h-8.57l-4.06-16.23L212.57,50.8h-3.3l4.94-22.45H223l3.85,16.44,3.62-16.44h3.38Z"/>
  <path class="cls-1" d="M245.12,40.55h9.49L252.48,50.8h-4.32l-.7-2.26h-.14a9.2,9.2,0,0,1-2.27,1.8,6.76,6.76,0,0,1-3.37.74,9.89,9.89,0,0,1-3.12-.49A7.82,7.82,0,0,1,235.92,49,8.28,8.28,0,0,1,234.09,46a12.18,12.18,0,0,1-.69-4.35,15.64,15.64,0,0,1,.87-5.23,12.29,12.29,0,0,1,7-7.35,16,16,0,0,1,6.15-1.1,16.63,16.63,0,0,1,4.73.6c1.34.4,2.61.85,3.81,1.34l-1.39,6.86h-6.19c0-.26.06-.56.11-.92s.08-.72.11-1.09,0-.79.07-1.17,0-.71,0-1,0-.4,0-.64a3.2,3.2,0,0,0-.18-.74,1.36,1.36,0,0,0-.44-.56,1.27,1.27,0,0,0-.85-.25,2.46,2.46,0,0,0-1.75.78,7,7,0,0,0-1.4,2,18.37,18.37,0,0,0-1.1,2.83c-.29,1.06-.55,2.14-.76,3.25s-.36,2.16-.48,3.22-.15,1.94-.15,2.72c0,.24,0,.53,0,.88a3.93,3.93,0,0,0,.22,1.06,3.33,3.33,0,0,0,.58.89,1.71,1.71,0,0,0,1.14.35,3.2,3.2,0,0,0,2.35-1.27,9.15,9.15,0,0,0,1.72-4.24h-3.08Z"/>
  <path class="cls-1" d="M87,39.2c.21,15.93-12.76,23.36-19,25.08,8.83-2.44,22.22-10.6,22.22-25.08,0-6-1.07-14.34-10.71-21.72C71.33,11.2,59.81,9.91,54,9.72a.38.38,0,0,0-.25.09l-9.6,8.29a.14.14,0,0,0,.14.24A58.38,58.38,0,0,1,62.39,16.7C68.81,17,86.77,21.1,87,39.2Z"/>
  <path class="cls-2" d="M91.18,40C90.9,61.4,107.44,71.4,115.4,73.72,104.14,70.44,87.08,59.45,87.08,40c0-8,1.37-19.31,13.65-29.24C111.17,2.27,125.87.53,133.32.28a.38.38,0,0,1,.28.11l12.17,11.1a.22.22,0,0,1-.2.37c-7.85-2.21-15.11-2.52-23-2.19C114.37,10,91.49,15.59,91.18,40Z"/>
</svg>
