<svg id="Layer_1" data-name="Layer 1" xmlns="http://www.w3.org/2000/svg" width="184" height="53" viewBox="0 0 184 53">
  <defs>
    <style>
      .cls-1 {
        fill: #18162d;
      }

      .cls-2 {
        fill: #fff;
      }
    </style>
  </defs>
  <path class="cls-1" d="M19,36.66H13.25l2.38-11.33L9.5,36.66H6L4.81,24.94,2.33,36.66H0L3.49,20h6.6l.8,9.39,5-9.39h6.65Z" transform="translate(0 0)"/>
  <path class="cls-1" d="M21.31,36.66,24.81,20h7a10,10,0,0,1,2.79.34,4.31,4.31,0,0,1,2,1.07,4.53,4.53,0,0,1,1.19,2,9.38,9.38,0,0,1,.42,3,14.3,14.3,0,0,1-.5,3.75,8.83,8.83,0,0,1-1.57,3.28,8.26,8.26,0,0,1-2.93,2.34,10.18,10.18,0,0,1-4.42.86Zm7.09-1.83a2,2,0,0,0,1.5-.71A6.26,6.26,0,0,0,31,32.28a13.38,13.38,0,0,0,.8-2.46,25.4,25.4,0,0,0,.52-2.63c.14-.84.23-1.59.29-2.25s.1-1.14.1-1.42a2,2,0,0,0-.34-1.26,1.23,1.23,0,0,0-1.11-.47H30.06l-2.77,13Z" transform="translate(0 0)"/>
  <path class="cls-1" d="M52,36.66H46l-.36-4.17H40.83L39,36.66H36.48L44.12,20h6.13ZM41.68,30.58h3.76l-.6-7.14Z" transform="translate(0 0)"/>
  <path class="cls-1" d="M82.2,25a5.54,5.54,0,0,0,.08-1,4.44,4.44,0,0,0-.06-.74,2,2,0,0,0-.18-.66.94.94,0,0,0-.39-.46,1.22,1.22,0,0,0-.69-.18,2,2,0,0,0-.87.2,2.84,2.84,0,0,0-.71.54,2.4,2.4,0,0,0-.47.74,2.27,2.27,0,0,0-.16.86,1.38,1.38,0,0,0,.34,1,2.8,2.8,0,0,0,1,.59,8,8,0,0,0,1.32.38c.49.11,1,.22,1.52.36A9.86,9.86,0,0,1,84.2,27a3.79,3.79,0,0,1,1.16.77A3.16,3.16,0,0,1,86.2,29a4.74,4.74,0,0,1,.32,1.86A4.85,4.85,0,0,1,84,35.36a8.56,8.56,0,0,1-2.76,1,18.62,18.62,0,0,1-3.45.3,16.6,16.6,0,0,1-3.11-.23,12.48,12.48,0,0,1-1.87-.53,3.28,3.28,0,0,1-1.21-.77l.89-3.49h4.64c0,.15,0,.36,0,.64s0,.45,0,.61a3,3,0,0,0,.08.64,2.16,2.16,0,0,0,.24.61,1.48,1.48,0,0,0,.5.46,1.57,1.57,0,0,0,.79.17,1.84,1.84,0,0,0,.92-.22A2.13,2.13,0,0,0,80.3,34a2,2,0,0,0,.42-.76,2.35,2.35,0,0,0,.16-.84,1.49,1.49,0,0,0-.29-1,2.06,2.06,0,0,0-.73-.63,4.69,4.69,0,0,0-1.11-.46l-1.26-.41c-.43-.12-.87-.27-1.35-.44a4.49,4.49,0,0,1-1.26-.71,4.07,4.07,0,0,1-1-1.15,4,4,0,0,1-.36-1.81,4.35,4.35,0,0,1,.84-2.73,6.66,6.66,0,0,1,2.16-1.81,9.92,9.92,0,0,1,2.87-1,15.54,15.54,0,0,1,3-.3,10.14,10.14,0,0,1,3.16.43,5.76,5.76,0,0,1,2,1l-1,3.54Z" transform="translate(0 0)"/>
  <path class="cls-1" d="M101.37,36.46H95.68l1.58-7.22H94l-1.58,7.22H86.75l3.56-16.2H96l-1.55,7h3.21l1.55-7H105Z" transform="translate(0 0)"/>
  <path class="cls-1" d="M109.45,36.46h-5.69l3.56-16.2H113Z" transform="translate(0 0)"/>
  <path class="cls-1" d="M120.28,29.47a1.62,1.62,0,0,0,1.31-.64,5,5,0,0,0,.9-1.55,9,9,0,0,0,.53-1.92,11.78,11.78,0,0,0,.15-1.73,2.48,2.48,0,0,0-.23-1.15,1,1,0,0,0-1-.48h-1.19l-1.65,7.47ZM118.7,31.1l-1.19,5.36h-5.69l3.56-16.2h6.08a22.85,22.85,0,0,1,2.74.15,6.36,6.36,0,0,1,2.13.62,3.25,3.25,0,0,1,1.4,1.32,4.47,4.47,0,0,1,.5,2.27,7.13,7.13,0,0,1-.45,2.53,5.06,5.06,0,0,1-1.39,2.06,6.86,6.86,0,0,1-2.48,1.38,11.79,11.79,0,0,1-3.71.51Z" transform="translate(0 0)"/>
  <path class="cls-1" d="M135.54,29.47a1.63,1.63,0,0,0,1.32-.64,5,5,0,0,0,.89-1.55,9,9,0,0,0,.53-1.92,11.93,11.93,0,0,0,.16-1.73,2.48,2.48,0,0,0-.24-1.15,1,1,0,0,0-1-.48H136l-1.66,7.47ZM134,31.1l-1.19,5.36h-5.68l3.55-16.2h6.09a22.68,22.68,0,0,1,2.73.15,6.49,6.49,0,0,1,2.14.62A3.28,3.28,0,0,1,143,22.35a4.37,4.37,0,0,1,.5,2.27,7.13,7.13,0,0,1-.45,2.53,5.06,5.06,0,0,1-1.39,2.06,6.78,6.78,0,0,1-2.48,1.38,11.74,11.74,0,0,1-3.71.51Z" transform="translate(0 0)"/>
  <path class="cls-1" d="M148,36.46h-5.69l3.55-16.2h5.72Z" transform="translate(0 0)"/>
  <path class="cls-1" d="M164.45,36.46h-6.16l-2.93-11.71-2.58,11.71h-2.37L154,20.26h6.29L163,32.12l2.61-11.86h2.42Z" transform="translate(0 0)"/>
  <path class="cls-1" d="M176.18,29.06H183l-1.53,7.4h-3.1l-.5-1.63h-.11a6.53,6.53,0,0,1-1.63,1.3,4.89,4.89,0,0,1-2.43.53,7.27,7.27,0,0,1-2.23-.35,5.46,5.46,0,0,1-1.9-1.18A6.09,6.09,0,0,1,168.25,33a8.78,8.78,0,0,1-.5-3.13,11.27,11.27,0,0,1,.63-3.78,9.15,9.15,0,0,1,1.9-3.14,8.84,8.84,0,0,1,3.16-2.16,11.41,11.41,0,0,1,4.43-.79,11.84,11.84,0,0,1,3.39.43,27.43,27.43,0,0,1,2.74,1l-1,4.95h-4.45c0-.19,0-.41.08-.67s.06-.51.08-.79,0-.57,0-.84,0-.51,0-.71a3.93,3.93,0,0,0,0-.46,1.94,1.94,0,0,0-.13-.54,1,1,0,0,0-.32-.41,1,1,0,0,0-.6-.17,1.77,1.77,0,0,0-1.27.56,5.05,5.05,0,0,0-1,1.45,13,13,0,0,0-.79,2c-.21.77-.39,1.55-.55,2.35s-.25,1.55-.34,2.32-.11,1.4-.11,2c0,.17,0,.39,0,.64a3,3,0,0,0,.16.77,2,2,0,0,0,.42.63,1.18,1.18,0,0,0,.81.26,2.32,2.32,0,0,0,1.69-.92A6.58,6.58,0,0,0,178,30.77h-2.21Z" transform="translate(0 0)"/>
  <path class="cls-1" d="M62.54,28.08c.16,11.5-9.17,16.86-13.66,18.11,6.35-1.76,16-7.66,16-18.11,0-4.29-.77-10.34-7.69-15.67C51.27,7.88,43,7,38.78,6.81a.31.31,0,0,0-.18.07l-6.89,6a.11.11,0,0,0,.1.18,41.73,41.73,0,0,1,13-1.19C49.46,12,62.37,15,62.54,28.08Z" transform="translate(0 0)"/>
  <path class="cls-2" d="M65.53,28.63C65.34,44.11,77.22,51.33,82.94,53c-8.09-2.37-20.35-10.3-20.35-24.37,0-5.77,1-13.93,9.81-21.1C79.9,1.44,90.47.18,95.82,0a.28.28,0,0,1,.2.08l8.75,8a.16.16,0,0,1-.14.27A50.48,50.48,0,0,0,88.09,6.78C82.21,7,65.75,11.05,65.53,28.63Z" transform="translate(0 0)"/>
</svg>
