<svg width="184" height="53" viewBox="0 0 184 53" fill="none" xmlns="http://www.w3.org/2000/svg">
<path d="M18.9909 36.6625H13.2471L15.6274 25.3304L9.49547 36.6625H5.97671L4.81242 24.9369L2.32859 36.6625H0L3.49288 20.0054H10.0906L10.8926 29.3963L15.8603 20.0054H22.5097L18.9909 36.6625Z" fill="#18162D"/>
<path d="M21.3131 36.6625L24.8059 20.0054H31.7658C32.8353 20.0054 33.7667 20.119 34.5601 20.3464C35.3708 20.5562 36.0349 20.9147 36.5524 21.4219C37.0871 21.929 37.4838 22.5936 37.7425 23.4155C38.0185 24.2374 38.1565 25.243 38.1565 26.4321C38.1565 27.7088 37.9927 28.9591 37.6649 30.1833C37.3544 31.4074 36.8284 32.5004 36.0867 33.4622C35.345 34.4241 34.3704 35.2023 33.163 35.7969C31.9728 36.374 30.498 36.6625 28.7387 36.6625H21.3131ZM28.4023 34.8263C28.9715 34.8263 29.4717 34.5902 29.903 34.118C30.3514 33.6284 30.7309 33.0163 31.0414 32.2818C31.3691 31.5298 31.6365 30.7079 31.8435 29.816C32.0677 28.9067 32.2402 28.0323 32.3609 27.1929C32.4989 26.3534 32.5938 25.6015 32.6455 24.9369C32.7145 24.2724 32.749 23.8002 32.749 23.5204C32.749 22.9783 32.6369 22.5586 32.4127 22.2613C32.2057 21.9465 31.8348 21.7891 31.3001 21.7891H30.0582L27.2898 34.8263H28.4023Z" fill="#18162D"/>
<path d="M52.0328 36.6625H45.9785L45.6163 32.4917H40.8297L38.9927 36.6625H36.483L44.1156 20.0054H50.2476L52.0328 36.6625ZM41.6836 30.5768H45.4352L44.8401 23.4417L41.6836 30.5768Z" fill="#18162D"/>
<path d="M82.1986 24.954C82.2513 24.699 82.2776 24.3503 82.2776 23.9082C82.2776 23.6531 82.2601 23.4065 82.225 23.1684C82.1898 22.9134 82.1284 22.6923 82.0406 22.5052C81.9529 22.3011 81.8212 22.1481 81.6456 22.0461C81.4701 21.927 81.2419 21.8675 80.961 21.8675C80.645 21.8675 80.3554 21.9355 80.092 22.0716C79.8287 22.2076 79.5917 22.3862 79.3811 22.6073C79.188 22.8113 79.03 23.0579 78.9071 23.347C78.8018 23.6191 78.7491 23.9082 78.7491 24.2143C78.7491 24.6564 78.8632 24.9966 79.0914 25.2346C79.3372 25.4727 79.6532 25.6683 80.0394 25.8213C80.4256 25.9744 80.8645 26.1019 81.356 26.204C81.8475 26.306 82.3566 26.425 82.8833 26.5611C83.3221 26.6801 83.761 26.8332 84.1999 27.0202C84.6387 27.2073 85.0249 27.4624 85.3585 27.7855C85.7096 28.0916 85.9905 28.4997 86.2011 29.0099C86.4118 29.5031 86.5171 30.1238 86.5171 30.8721C86.5171 31.9434 86.2977 32.8447 85.8588 33.576C85.4199 34.3072 84.8143 34.9024 84.0419 35.3616C83.2695 35.8207 82.3478 36.1523 81.277 36.3564C80.2237 36.5605 79.0739 36.6625 77.8275 36.6625C76.5635 36.6625 75.5278 36.586 74.7203 36.4329C73.9303 36.2629 73.3071 36.0843 72.8507 35.8973C72.3065 35.6762 71.9027 35.4211 71.6394 35.132L72.5347 31.6373H77.1692C77.1516 31.7904 77.1341 32.0029 77.1165 32.275C77.0989 32.5301 77.0902 32.7342 77.0902 32.8872C77.0902 33.0913 77.1165 33.3039 77.1692 33.525C77.2218 33.746 77.3008 33.9501 77.4062 34.1372C77.529 34.3242 77.6958 34.4773 77.9065 34.5963C78.1171 34.7154 78.3805 34.7749 78.6964 34.7749C79.0475 34.7749 79.3547 34.6983 79.6181 34.5453C79.8989 34.3922 80.1272 34.2052 80.3027 33.9841C80.4958 33.746 80.6362 33.4909 80.724 33.2188C80.8293 32.9297 80.882 32.6492 80.882 32.3771C80.882 32.0029 80.7855 31.6883 80.5924 31.4332C80.4168 31.1782 80.171 30.9656 79.8551 30.7955C79.5391 30.6085 79.1704 30.4554 78.7491 30.3364C78.3453 30.2003 77.924 30.0643 77.4852 29.9282C77.0638 29.8092 76.6162 29.6646 76.1422 29.4946C75.6858 29.3245 75.2645 29.0864 74.8783 28.7803C74.4921 28.4742 74.1673 28.0916 73.904 27.6325C73.6582 27.1563 73.5353 26.5526 73.5353 25.8213C73.5353 24.733 73.8162 23.8232 74.378 23.0919C74.9573 22.3437 75.677 21.74 76.5372 21.2808C77.4149 20.8216 78.3717 20.4985 79.4074 20.3115C80.4431 20.1074 81.4262 20.0054 82.3566 20.0054C83.5855 20.0054 84.6387 20.1499 85.5165 20.439C86.4118 20.7111 87.0876 21.0342 87.5441 21.4083L86.5698 24.954H82.1986Z" fill="#18162D"/>
<path d="M101.366 36.4584H95.6784L97.2584 29.2395H94.0195L92.4396 36.4584H86.7518L90.3067 20.2605H96.0208L94.4672 27.3008H97.6797L99.2333 20.2605H104.974L101.366 36.4584Z" fill="#18162D"/>
<path d="M109.451 36.4584H103.763L107.318 20.2605H113.032L109.451 36.4584Z" fill="#18162D"/>
<path d="M120.278 29.4691C120.804 29.4691 121.243 29.2565 121.594 28.8314C121.963 28.4062 122.261 27.8875 122.49 27.2753C122.735 26.6631 122.911 26.0254 123.016 25.3622C123.122 24.699 123.174 24.1208 123.174 23.6276C123.174 23.1684 123.095 22.7858 122.937 22.4797C122.779 22.1566 122.437 21.995 121.91 21.995H120.725L119.066 29.4691H120.278ZM118.698 31.1016L117.513 36.4584H111.825L115.38 20.2605H121.463C122.463 20.2605 123.376 20.3115 124.201 20.4135C125.026 20.5155 125.737 20.7196 126.334 21.0257C126.931 21.3318 127.396 21.774 127.73 22.3522C128.063 22.9134 128.23 23.6701 128.23 24.6224C128.23 25.5067 128.081 26.3485 127.782 27.1478C127.501 27.9301 127.036 28.6188 126.387 29.214C125.755 29.7922 124.93 30.2513 123.912 30.5915C122.893 30.9316 121.656 31.1016 120.199 31.1016H118.698Z" fill="#18162D"/>
<path d="M135.54 29.4691C136.067 29.4691 136.506 29.2565 136.857 28.8314C137.225 28.4062 137.524 27.8875 137.752 27.2753C137.998 26.6631 138.173 26.0254 138.279 25.3622C138.384 24.699 138.437 24.1208 138.437 23.6276C138.437 23.1684 138.358 22.7858 138.2 22.4797C138.042 22.1566 137.699 21.995 137.173 21.995H135.988L134.329 29.4691H135.54ZM133.96 31.1016L132.775 36.4584H127.087L130.642 20.2605H136.725C137.726 20.2605 138.638 20.3115 139.464 20.4135C140.289 20.5155 141 20.7196 141.596 21.0257C142.193 21.3318 142.659 21.774 142.992 22.3522C143.326 22.9134 143.492 23.6701 143.492 24.6224C143.492 25.5067 143.343 26.3485 143.045 27.1478C142.764 27.9301 142.299 28.6188 141.649 29.214C141.017 29.7922 140.192 30.2513 139.174 30.5915C138.156 30.9316 136.918 31.1016 135.461 31.1016H133.96Z" fill="#18162D"/>
<path d="M148.038 36.4584H142.35L145.905 20.2605H151.619L148.038 36.4584Z" fill="#18162D"/>
<path d="M164.447 36.4584H158.285L155.362 24.75L152.782 36.4584H150.412L153.967 20.2605H160.26L163.025 32.122L165.632 20.2605H168.055L164.447 36.4584Z" fill="#18162D"/>
<path d="M176.18 29.0609H183L181.472 36.4584H178.365L177.865 34.8259H177.759C177.303 35.3361 176.759 35.7697 176.127 36.1268C175.512 36.484 174.705 36.6625 173.704 36.6625C172.932 36.6625 172.186 36.5435 171.466 36.3054C170.764 36.0503 170.132 35.6592 169.57 35.132C169.026 34.5878 168.587 33.8821 168.254 33.0148C167.92 32.1475 167.753 31.1016 167.753 29.8772C167.753 28.5508 167.964 27.2923 168.385 26.1019C168.806 24.9115 169.438 23.8657 170.281 22.9644C171.124 22.0461 172.177 21.3233 173.441 20.7961C174.705 20.269 176.18 20.0054 177.865 20.0054C179.164 20.0054 180.296 20.1499 181.262 20.439C182.227 20.7281 183.14 21.0512 184 21.4083L183 26.357H178.549C178.567 26.17 178.593 25.9489 178.628 25.6938C178.664 25.4387 178.69 25.1751 178.707 24.903C178.725 24.6139 178.743 24.3333 178.76 24.0612C178.778 23.7892 178.786 23.5511 178.786 23.347C178.786 23.211 178.778 23.0579 178.76 22.8878C178.743 22.7008 178.699 22.5222 178.628 22.3522C178.558 22.1821 178.453 22.0461 178.312 21.944C178.172 21.825 177.97 21.7655 177.707 21.7655C177.25 21.7655 176.829 21.9525 176.443 22.3267C176.074 22.6838 175.741 23.1684 175.442 23.7807C175.144 24.3759 174.88 25.0561 174.652 25.8213C174.442 26.5866 174.257 27.3689 174.099 28.1681C173.959 28.9504 173.845 29.7242 173.757 30.4894C173.687 31.2377 173.652 31.8924 173.652 32.4536C173.652 32.6236 173.66 32.8362 173.678 33.0913C173.696 33.3464 173.748 33.6015 173.836 33.8566C173.941 34.0946 174.082 34.3072 174.257 34.4943C174.45 34.6643 174.722 34.7494 175.074 34.7494C175.653 34.7494 176.215 34.4433 176.759 33.8311C177.303 33.2188 177.716 32.1985 177.996 30.77H175.785L176.18 29.0609Z" fill="#18162D"/>
<path d="M62.5435 28.0848C62.6975 39.5799 53.3709 44.9418 48.8808 46.1859C55.2311 44.4264 64.8527 38.5349 64.8527 28.0848C64.8527 23.7928 64.083 17.7365 57.1554 12.4097C51.2704 7.88458 42.9849 6.95068 38.7826 6.81459C38.7164 6.81245 38.6543 6.83532 38.605 6.87809L31.7071 12.8631C31.6254 12.9339 31.6999 13.0642 31.8056 13.0358C36.2554 11.8385 40.3671 11.6692 44.8397 11.8499C49.4581 12.0365 62.3686 15.0222 62.5435 28.0848Z" fill="#18162D"/>
<path d="M65.5321 28.6334C65.3359 44.1075 77.2195 51.3253 82.9407 53C74.8493 50.6315 62.5898 42.7007 62.5898 28.6334C62.5898 22.8558 63.5705 14.7031 72.3974 7.53246C79.9022 1.43583 90.4709 0.181696 95.821 0.000163692C95.8964 -0.00239718 95.9672 0.0251765 96.0235 0.0767641L104.77 8.0942C104.886 8.20121 104.78 8.3985 104.629 8.35584C98.9853 6.76167 93.7656 6.53656 88.0897 6.77886C82.2051 7.03006 65.755 11.0493 65.5321 28.6334Z" fill="#3579F4"/>
</svg>
