<svg width="38" height="37" viewBox="0 0 38 37" fill="none" xmlns="http://www.w3.org/2000/svg">
<g clip-path="url(#clip0_58_711)">
<path fill-rule="evenodd" clip-rule="evenodd" d="M32.3998 5.37733C28.8437 1.91167 24.1158 0.00154167 19.0792 0C8.7005 0 0.253415 8.22325 0.248665 18.3335C0.247082 21.5648 1.11475 24.7191 2.763 27.5002L0.090332 37L10.0717 34.4501C12.8219 35.9116 15.9189 36.6809 19.0697 36.6824H19.0777C29.4548 36.6824 37.9035 28.4576 37.9082 18.3474C37.9114 13.4495 35.9544 8.84146 32.3998 5.37733ZM19.0792 33.5852H19.0729C16.2641 33.5852 13.5107 32.8498 11.1072 31.4608L10.5356 31.1309L4.61233 32.6432L6.19408 27.0192L5.822 26.4427C4.2545 24.0161 3.428 21.2118 3.42958 18.3335C3.43275 9.93142 10.4548 3.09567 19.0872 3.09567C23.2672 3.09567 27.197 4.68358 30.1515 7.56342C33.106 10.4448 34.7321 14.2727 34.7305 18.3443C34.7257 26.7495 27.7052 33.5852 19.0792 33.5852ZM27.6641 22.1722C27.1938 21.9425 24.8806 20.8341 24.4483 20.6815C24.0177 20.5288 23.7042 20.4517 23.3891 20.9096C23.074 21.3675 22.1747 22.4004 21.8992 22.7072C21.6252 23.0125 21.3497 23.051 20.8795 22.8213C20.4093 22.5916 18.8924 22.109 17.0953 20.5473C15.6972 19.3325 14.752 17.8325 14.4781 17.373C14.2042 16.9136 14.4496 16.667 14.6839 16.4388C14.8961 16.2337 15.1542 15.9038 15.3901 15.6356C15.6276 15.3704 15.7052 15.1792 15.8635 14.8725C16.0202 14.5672 15.9427 14.299 15.8239 14.0693C15.7052 13.8411 14.7647 11.5856 14.3736 10.6683C13.992 9.77417 13.6041 9.89596 13.3143 9.88208C13.0404 9.86821 12.7269 9.86667 12.4118 9.86667C12.0983 9.86667 11.5885 9.98075 11.1578 10.4402C10.7272 10.8996 9.51117 12.008 9.51117 14.262C9.51117 16.5174 11.1974 18.6958 11.4317 19.001C11.6661 19.3063 14.7488 23.9344 19.4687 25.9185C20.5913 26.3902 21.4685 26.6724 22.1509 26.8836C23.2782 27.232 24.3042 27.1827 25.1149 27.0655C26.019 26.9345 27.8984 25.957 28.2911 24.8871C28.6838 23.8172 28.6838 22.8984 28.565 22.7087C28.4478 22.516 28.1343 22.402 27.6641 22.1722Z" fill="white"/>
</g>
<defs>
<clipPath id="clip0_58_711">
<path d="M0 19C0 8.50659 8.50659 0 19 0C29.4934 0 38 8.50659 38 19V37H0V19Z" fill="white"/>
</clipPath>
</defs>
</svg>
