<svg width="9" height="10" viewBox="0 0 9 10" fill="none" xmlns="http://www.w3.org/2000/svg">
<path fill-rule="evenodd" clip-rule="evenodd" d="M1.84187 0.821214C1.45135 0.430689 0.818183 0.430689 0.427659 0.821214C0.0371345 1.21174 0.0371345 1.8449 0.427659 2.23543L3.06325 4.87102L0.427659 7.50661C0.0371347 7.89713 0.0371347 8.5303 0.427659 8.92082C0.818183 9.31134 1.45135 9.31134 1.84187 8.92082L4.47746 6.28523L7.11305 8.92082C7.50358 9.31134 8.13674 9.31134 8.52727 8.92082C8.91779 8.5303 8.91779 7.89713 8.52727 7.50661L5.89168 4.87102L8.52727 2.23543C8.91779 1.8449 8.91779 1.21174 8.52727 0.821214C8.13674 0.430689 7.50358 0.430689 7.11305 0.821214L4.47746 3.4568L1.84187 0.821214Z" fill="#A3A3A4"/>
</svg>
